<?xml version="1.0" encoding="utf-8"?>
<!DOCTYPE svg PUBLIC "-//W3C//DTD SVG 1.1//EN" "http://www.w3.org/Graphics/SVG/1.1/DTD/svg11.dtd">
<svg version="1.1" id="Layer_5" xmlns="http://www.w3.org/2000/svg" xmlns:xlink="http://www.w3.org/1999/xlink" x="0px" y="0px"
	 width="322.925px" height="60.203px" viewBox="0 0 322.925 60.203" enable-background="new 0 0 322.925 60.203"
	 xml:space="preserve">
	<style>
		.logo{fill: #000000;}
	</style>
<g>
	<g>
		<path class="logo" d="M25.594,0h10.79l25.761,59.789H47.425l-5.102-12.667H19.321l-4.935,12.667H0L25.594,0z M30.613,17.396l-7.193,18.579
			h14.47L30.613,17.396z"/>
		<path class="logo" d="M64.487,0h22.918c3.011,0,5.868,0.295,8.573,0.887c2.704,0.591,5.073,1.577,7.109,2.956
			c2.035,1.38,3.651,3.238,4.851,5.574c1.199,2.336,1.798,5.25,1.798,8.74c0,4.223-1.087,7.812-3.262,10.768
			c-2.174,2.956-5.353,4.828-9.535,5.616l15.055,25.25H96.354L83.976,35.89h-6.44v23.899H64.487V0z M77.536,24.743h7.695
			c1.171,0,2.411-0.042,3.722-0.127c1.309-0.084,2.495-0.337,3.555-0.76c1.059-0.422,1.937-1.083,2.635-1.984
			c0.696-0.9,1.045-2.167,1.045-3.8c0-1.52-0.307-2.73-0.92-3.631c-0.614-0.9-1.395-1.59-2.342-2.069
			c-0.949-0.478-2.036-0.802-3.262-0.971c-1.228-0.169-2.426-0.253-3.597-0.253h-8.531V24.743z"/>
		<path class="logo" d="M114.672,0h22.918c3.011,0,5.867,0.295,8.573,0.887c2.703,0.591,5.073,1.577,7.109,2.956
			c2.035,1.38,3.651,3.238,4.851,5.574c1.199,2.336,1.798,5.25,1.798,8.74c0,4.223-1.087,7.812-3.262,10.768
			c-2.174,2.956-5.354,4.828-9.535,5.616l15.055,25.25H146.54L134.161,35.89h-6.441v23.899h-13.047V0z M127.719,24.743h7.696
			c1.17,0,2.412-0.042,3.722-0.127c1.31-0.084,2.495-0.337,3.555-0.76c1.059-0.422,1.937-1.083,2.635-1.984
			c0.696-0.9,1.045-2.167,1.045-3.8c0-1.52-0.307-2.73-0.92-3.631c-0.614-0.9-1.394-1.59-2.342-2.069
			c-0.948-0.478-2.036-0.802-3.262-0.971c-1.228-0.169-2.426-0.253-3.597-0.253h-8.532V24.743z"/>
		<path class="logo" d="M236.067,34.286L213.819,0h16.226l12.546,22.378L255.891,0h15.474l-22.249,34.286v25.503h-13.048V34.286z"/>
	</g>
	<path class="logo" d="M222.39,30.111c0,16.621-13.472,30.092-30.092,30.092c-16.62,0-30.091-13.471-30.091-30.092
		c0-16.619,13.471-30.092,30.091-30.092C208.918,0.019,222.39,13.492,222.39,30.111z M192.299,12.588
		c-9.682,0-17.526,7.846-17.526,17.523c0,9.681,7.844,17.523,17.526,17.523c9.676,0,17.521-7.843,17.521-17.523
		C209.82,20.434,201.976,12.588,192.299,12.588z"/>
	<path class="logo" d="M322.925,30.111c0,16.621-13.472,30.092-30.092,30.092c-16.62,0-30.091-13.471-30.091-30.092
		c0-16.617,13.471-30.092,30.091-30.092C309.453,0.019,322.925,13.494,322.925,30.111z M286.948,45.501l3.133,1.45l8.312-32.233
		l-3.159-1.447L286.948,45.501z M300.084,39.558l12.618-7.375v-4.688l-12.618-7.373v5.062l7.905,4.618v0.072l-7.905,4.622V39.558z
		 M285.582,19.849l-12.621,7.373v4.69l12.621,7.375v-5.064l-7.907-4.619v-0.072l7.907-4.618V19.849z"/>
</g>
</svg>
