<?xml version="1.0" encoding="utf-8"?>
<svg version="1.1" id="Layer_1" xmlns="http://www.w3.org/2000/svg" xmlns:xlink="http://www.w3.org/1999/xlink" x="0px" y="0px" viewbox="0 0 609.925 113.709" style="enable-background:new 0 0 609.925 113.709;" xml:space="preserve">
  <style type="text/css">
    .logo{fill:#000000;}
  </style>
    <g>
      <path class="logo" d="M48.341,0h20.379l48.657,112.926H89.574l-9.637-23.925H36.493l-9.321,23.925H0L48.341,0z M57.82,32.856L44.234,67.947 h27.331L57.82,32.856z"/>
      <path class="logo" d="M121.801,0h43.286c5.687,0,11.083,0.558,16.192,1.675c5.107,1.116,9.583,2.978,13.428,5.582 c3.843,2.606,6.897,6.116,9.163,10.527c2.264,4.413,3.397,9.916,3.397,16.508c0,7.976-2.054,14.754-6.162,20.337 c-4.107,5.582-10.11,9.118-18.009,10.606l28.436,47.69H181.99l-23.381-45.139h-12.164v45.139h-24.645V0z M146.445,46.733h14.534 c2.211,0,4.554-0.08,7.03-0.239c2.473-0.159,4.712-0.638,6.714-1.436c2-0.798,3.658-2.046,4.977-3.748 c1.315-1.7,1.975-4.093,1.975-7.178c0-2.871-0.58-5.156-1.738-6.858c-1.16-1.7-2.634-3.003-4.423-3.908 c-1.792-0.902-3.846-1.515-6.161-1.834c-2.318-0.319-4.582-0.479-6.793-0.479h-16.114V46.733z"/>
      <path class="logo" d="M216.587,0h43.286c5.688,0,11.082,0.558,16.193,1.675c5.105,1.116,9.582,2.978,13.428,5.582 c3.844,2.606,6.896,6.116,9.162,10.527c2.264,4.413,3.396,9.916,3.396,16.508c0,7.976-2.053,14.754-6.16,20.337 c-4.107,5.582-10.111,9.118-18.01,10.606l28.436,47.69h-29.541l-23.381-45.139H241.23v45.139h-24.644V0z M241.23,46.733h14.535 c2.211,0,4.555-0.08,7.029-0.239s4.713-0.638,6.715-1.436c2-0.798,3.658-2.046,4.977-3.748c1.314-1.7,1.975-4.093,1.975-7.178 c0-2.871-0.58-5.156-1.738-6.858c-1.16-1.7-2.633-3.003-4.424-3.908c-1.791-0.902-3.846-1.515-6.16-1.834 c-2.318-0.319-4.582-0.479-6.793-0.479H241.23V46.733z"/>
      <path class="logo" d="M445.873,64.757L403.852,0h30.646l23.697,42.268L483.314,0h29.225l-42.021,64.757v48.169h-24.645V64.757z"/>
      <path class="logo" d="M420.039,56.872c0,31.393-25.443,56.837-56.836,56.837c-31.392,0-56.834-25.444-56.834-56.837 c0-31.389,25.442-56.836,56.834-56.836C394.596,0.036,420.039,25.483,420.039,56.872z M363.206,23.775 c-18.287,0-33.104,14.819-33.104,33.097c0,18.284,14.816,33.098,33.104,33.098c18.275,0,33.091-14.813,33.091-33.098 C396.297,38.595,381.481,23.775,363.206,23.775z"/>
      <path class="logo" d="M609.924,56.872c0,31.393-25.443,56.837-56.836,56.837c-31.391,0-56.836-25.444-56.836-56.837 c0-31.386,25.445-56.836,56.836-56.836C584.48,0.036,609.924,25.486,609.924,56.872z M541.975,85.941l5.918,2.737l15.699-60.88 l-5.967-2.732L541.975,85.941z M566.785,74.715l23.832-13.93v-8.854l-23.832-13.925v9.561l14.932,8.723v0.136l-14.932,8.729V74.715 z M539.393,37.49l-23.838,13.925v8.858l23.838,13.93v-9.565l-14.934-8.723v-0.137l14.934-8.723V37.49z"/>
    </g>
</svg>